<?xml version="1.0" encoding="UTF-8"?>
<svg xmlns="http://www.w3.org/2000/svg" xmlns:xlink="http://www.w3.org/1999/xlink" width="200px" height="200px" viewBox="0 0 200 200" version="1.1">
<g id="surface1">
<path style=" stroke:none;fill-rule:nonzero;fill:rgb(0%,0%,0%);fill-opacity:1;" d="M 97.148438 0.800781 C 96.25 1.25 95.148438 2.199219 94.648438 2.949219 C 93.800781 4.148438 93.75 6.851562 93.601562 48.851562 L 93.449219 93.5 L 50.199219 93.5 C 19.851562 93.5 6.300781 93.648438 4.699219 94.050781 C -0.550781 95.398438 -1.550781 102.449219 3.148438 105.25 C 4.699219 106.199219 6.101562 106.25 49.101562 106.398438 L 93.449219 106.5 L 93.601562 151.148438 C 93.75 193.199219 93.800781 195.851562 94.648438 197.101562 C 95.648438 198.550781 98.300781 200 100 200 C 101.648438 200 104.101562 198.648438 105.25 197.101562 C 106.25 195.800781 106.25 194.851562 106.398438 151.148438 L 106.550781 106.5 L 150.898438 106.398438 C 193.898438 106.25 195.300781 106.199219 196.851562 105.25 C 201.550781 102.449219 200.550781 95.398438 195.300781 94.050781 C 193.699219 93.648438 180.148438 93.5 149.800781 93.5 L 106.5 93.5 L 106.398438 49.101562 C 106.25 7.351562 106.199219 4.648438 105.351562 3.101562 C 103.800781 0.300781 100.199219 -0.699219 97.148438 0.800781 Z M 97.148438 0.800781 "/>
</g>
</svg>
