<?xml version="1.0" encoding="UTF-8"?>
<svg xmlns="http://www.w3.org/2000/svg" xmlns:xlink="http://www.w3.org/1999/xlink" width="200pt" height="200pt" viewBox="0 0 200 200" version="1.1">
<g id="surface1">
<path style=" stroke:none;fill-rule:nonzero;fill:rgb(0%,0%,0%);fill-opacity:1;" d="M 188.898438 16.300781 C 188.101562 17 159.300781 51.5 125.101562 93 C 90.199219 135.300781 61.601562 169.101562 60 169.898438 C 57.699219 171 56.898438 171 54.699219 169.898438 C 53.300781 169.101562 44 157.898438 34 145 C 13 117.898438 10.398438 115 7.398438 115 C 4 115 0 118.699219 0 121.898438 C 0 125.601562 41.101562 178.699219 46.699219 182.101562 C 51.601562 185.199219 61.601562 185.398438 67.199219 182.601562 C 70.101562 181.199219 86.5 162.101562 135.199219 103.101562 C 177.101562 52.5 199.601562 24.601562 199.800781 22.800781 C 200.601562 17.5 193.101562 13 188.898438 16.300781 Z M 188.898438 16.300781 "/>
</g>
</svg>
