<?xml version="1.0" encoding="UTF-8"?>
<svg xmlns="http://www.w3.org/2000/svg" xmlns:xlink="http://www.w3.org/1999/xlink" width="200pt" height="200pt" viewBox="0 0 200 200" version="1.1">
<g id="surface1">
<path style=" stroke:none;fill-rule:nonzero;fill:rgb(0%,0%,0%);fill-opacity:1;" d="M 2 2 C 0.101562 3.898438 0 5.300781 0 37.5 C 0 69.699219 0.101562 71.101562 2 73 C 3.898438 74.898438 5.300781 75 37.5 75 C 69.699219 75 71.101562 74.898438 73 73 C 75.5 70.5 75.5 67.898438 73.101562 64.898438 C 71.199219 62.5 71 62.5 46.101562 62 L 21 61.5 L 25.199219 54.5 C 27.699219 50.300781 33.101562 43.699219 38.898438 38 C 47.398438 29.5 49.800781 27.800781 60 22.699219 C 75 15.199219 84.199219 12.898438 99 12.800781 C 122.601562 12.601562 143.101562 20.5 159.5 36.101562 C 183.800781 59.199219 192.800781 90.898438 184.398438 123.5 C 175.800781 156.601562 144 183.601562 110.101562 186.5 C 96.101562 187.699219 94 188.699219 94 194 C 94 196.101562 94.800781 197.5 96.5 198.601562 C 99.800781 200.800781 112.300781 199.898438 125.601562 196.5 C 156.300781 188.699219 183.800781 163.5 194.101562 133.699219 C 207.398438 95.101562 197.601562 54.5 168.199219 26.898438 C 155.898438 15.300781 142.398438 7.898438 125.101562 3.199219 C 116.699219 1 113.601562 0.699219 99.5 0.699219 C 80.101562 0.699219 72.898438 2.300781 56.5 10.398438 C 39.199219 19 26 30.300781 16.898438 44.300781 L 13.101562 50.101562 L 12.800781 27.199219 C 12.5 6.199219 12.300781 4 10.601562 2.101562 C 8.199219 -0.5 4.601562 -0.601562 2 2 Z M 2 2 "/>
</g>
</svg>
