<?xml version="1.0" encoding="UTF-8"?>
<svg xmlns="http://www.w3.org/2000/svg" xmlns:xlink="http://www.w3.org/1999/xlink" width="200px" height="200px" viewBox="0 0 200 196" version="1.1">
<g id="surface1">
<path style=" stroke:none;fill-rule:nonzero;fill:rgb(0%,0%,0%);fill-opacity:1;" d="M 168.058594 1.359375 C 162.289062 3 156.238281 7.964844 153.613281 13.164062 C 150.421875 19.441406 150.328125 28.199219 153.332031 34.148438 L 154.269531 35.929688 L 145.261719 44.878906 C 136.679688 53.402344 136.210938 53.777344 135.320312 53.121094 C 133.535156 51.765625 129.175781 49.75 125.703125 48.671875 C 120.589844 47.078125 111.070312 47.078125 106.003906 48.625 C 98.921875 50.828125 92.542969 55.277344 87.710938 61.414062 L 86.023438 63.570312 L 74.0625 56.402344 C 64.726562 50.78125 62.195312 49.046875 62.289062 48.390625 C 62.382812 47.921875 62.570312 45.347656 62.710938 42.675781 C 62.898438 38.929688 62.757812 37.148438 62.148438 34.851562 C 60.507812 28.808594 55.628906 23.234375 49.25 20.191406 C 45.777344 18.503906 45.683594 18.503906 39.632812 18.503906 C 33.582031 18.503906 33.535156 18.503906 29.925781 20.238281 C 23.640625 23.234375 18.761719 28.808594 17.121094 34.851562 C 16.511719 37.054688 16.371094 39.070312 16.511719 42.675781 C 16.652344 47.125 16.839844 47.875 18.433594 51.203125 C 19.652344 53.824219 21.011719 55.746094 23.125 57.855469 C 28.191406 62.867188 33.441406 64.878906 40.761719 64.550781 C 45.871094 64.316406 49.203125 63.242188 53 60.617188 C 54.316406 59.726562 55.535156 59.023438 55.722656 59.117188 C 55.910156 59.210938 61.820312 62.726562 68.855469 66.941406 C 78.800781 72.9375 81.566406 74.8125 81.378906 75.375 C 81.191406 75.796875 80.957031 78.042969 80.816406 80.386719 C 80.394531 87.367188 81.941406 94.113281 85.320312 99.875 L 87.101562 102.964844 L 66.417969 123.578125 L 45.730469 144.1875 L 43.386719 143.113281 C 34.144531 138.941406 23.59375 141.144531 16.605469 148.640625 C 4.457031 161.710938 10.835938 182.648438 28.378906 187.144531 C 40.289062 190.191406 53.238281 182.507812 56.378906 170.5625 C 57.785156 165.175781 57.175781 158.523438 54.925781 154.214844 L 53.988281 152.480469 L 74.671875 131.773438 L 95.355469 111.117188 L 97.28125 112.289062 C 100.046875 114.066406 103.707031 115.613281 107.175781 116.457031 L 110.226562 117.207031 L 110.226562 129.386719 C 110.226562 140.488281 110.179688 141.519531 109.429688 141.753906 C 103.800781 143.582031 97.421875 148.78125 95.027344 153.511719 C 88.132812 167.191406 95.496094 183.304688 110.460938 187.144531 C 113.929688 188.035156 116.558594 188.035156 120.777344 187.144531 C 125.140625 186.210938 128.238281 184.617188 131.613281 181.570312 C 139.445312 174.453125 141.511719 163.066406 136.679688 153.511719 C 134.285156 148.78125 127.90625 143.582031 122.328125 141.753906 C 121.527344 141.519531 121.480469 140.488281 121.480469 129.339844 L 121.480469 117.113281 L 122.796875 116.878906 C 129.222656 115.519531 134.710938 112.710938 139.257812 108.445312 L 142.402344 105.449219 L 147.421875 110.460938 L 152.390625 115.472656 L 151.6875 118.050781 C 150.703125 121.5625 151.078125 127.652344 152.484375 131.496094 C 154.597656 137.257812 160.320312 143.066406 166.042969 145.3125 C 169.699219 146.71875 176.78125 147.046875 180.863281 145.921875 C 190.667969 143.300781 197.9375 133.507812 197.9375 123.015625 C 197.9375 114.675781 192.402344 106.152344 184.476562 102.261719 L 180.816406 100.484375 L 174.484375 100.484375 C 168.574219 100.484375 167.964844 100.578125 165.382812 101.792969 C 163.835938 102.496094 161.867188 103.621094 161.070312 104.230469 C 160.226562 104.886719 159.382812 105.402344 159.144531 105.402344 C 158.910156 105.402344 156.519531 103.152344 153.753906 100.34375 L 148.734375 95.328125 L 149.71875 92.050781 C 150.46875 89.472656 150.703125 87.460938 150.75 82.683594 C 150.796875 75.328125 149.71875 70.875 146.621094 65.441406 L 144.605469 61.929688 L 153.566406 53.027344 L 162.523438 44.128906 L 164.445312 45.019531 C 173.40625 49.046875 183.300781 47.5 190.335938 40.988281 C 196.667969 35.132812 199.203125 26.75 197.234375 18.363281 C 196.246094 14.335938 194.652344 11.335938 191.652344 8.105469 C 185.554688 1.546875 176.5 -1.03125 168.058594 1.359375 Z M 180.300781 13.773438 C 188.976562 18.832031 187.710938 31.574219 178.285156 34.898438 C 172.984375 36.773438 167.214844 34.570312 164.304688 29.605469 C 161.632812 25.109375 162.898438 18.222656 167.027344 14.898438 C 170.777344 11.851562 176.265625 11.382812 180.300781 13.773438 Z M 45.964844 31.667969 C 47.046875 32.417969 48.59375 33.914062 49.390625 34.992188 C 50.609375 36.726562 50.84375 37.523438 51.03125 40.613281 C 51.21875 43.941406 51.078125 44.503906 49.859375 46.84375 C 45.683594 54.714844 34.523438 55.230469 29.925781 47.78125 C 26.5 42.207031 27.859375 35.414062 33.113281 31.761719 C 35.414062 30.167969 36.023438 30.027344 40.382812 30.167969 C 43.433594 30.261719 44.230469 30.496094 45.964844 31.667969 Z M 121.152344 59.726562 C 125.515625 60.617188 128.660156 62.445312 132.410156 66.097656 C 144.605469 78.136719 139.820312 98.890625 123.640625 104.464844 C 114.914062 107.460938 105.910156 105.355469 99.296875 98.796875 C 94.183594 93.691406 92.027344 87.835938 92.589844 80.480469 C 93.011719 74.8125 95.027344 70.453125 99.15625 66.238281 C 105.347656 60.007812 112.476562 57.902344 121.152344 59.726562 Z M 179.410156 112.851562 C 181.941406 113.972656 184.992188 117.535156 185.742188 120.15625 C 187.289062 125.636719 184.238281 132.054688 179.082031 134.164062 C 176.828125 135.101562 172.140625 135.101562 169.886719 134.164062 C 164.492188 131.914062 161.398438 124.984375 163.460938 119.640625 C 164.539062 116.832031 167.121094 113.925781 169.558594 112.851562 C 172.09375 111.679688 176.921875 111.679688 179.410156 112.851562 Z M 39.585938 154.308594 C 48.265625 159.367188 47 172.109375 37.570312 175.433594 C 32.269531 177.308594 26.5 175.105469 23.59375 170.140625 C 20.917969 165.644531 22.1875 158.757812 26.3125 155.433594 C 30.066406 152.386719 35.554688 151.917969 39.585938 154.308594 Z M 121.667969 154.308594 C 130.347656 159.367188 129.082031 172.109375 119.652344 175.433594 C 114.351562 177.308594 108.582031 175.105469 105.675781 170.140625 C 103 165.644531 104.269531 158.757812 108.394531 155.433594 C 112.148438 152.386719 117.636719 151.917969 121.667969 154.308594 Z M 121.667969 154.308594 "/>
</g>
</svg>
