<?xml version="1.0" encoding="UTF-8"?>
<svg xmlns="http://www.w3.org/2000/svg" xmlns:xlink="http://www.w3.org/1999/xlink" width="200px" height="200px" viewBox="0 0 200 200" version="1.1">
<g id="surface1">
<path style=" stroke:none;fill-rule:nonzero;fill:rgb(0%,0%,0%);fill-opacity:1;" d="M 94.128906 4.273438 C 85.195312 6.601562 78.058594 14.613281 76.601562 23.882812 L 75.972656 27.667969 L 60.386719 27.667969 C 44.269531 27.667969 40.96875 27.960938 37.621094 29.660156 C 34.5625 31.214844 30.824219 35.242188 29.273438 38.542969 L 27.910156 41.503906 L 27.910156 183.738281 L 29.273438 186.652344 C 31.070312 190.484375 34.804688 194.222656 38.542969 195.972656 L 41.503906 197.332031 L 98.542969 197.476562 C 139.902344 197.570312 156.359375 197.476562 158.496094 197.089844 C 164.320312 195.972656 169.128906 192.136719 171.699219 186.652344 L 173.058594 183.738281 L 173.058594 41.503906 L 171.699219 38.542969 C 170.144531 35.242188 166.410156 31.214844 163.347656 29.660156 C 160 27.960938 156.699219 27.667969 140.582031 27.667969 L 125 27.667969 L 124.367188 23.882812 C 122.523438 12.183594 112.332031 3.445312 100.484375 3.445312 C 98.738281 3.445312 95.875 3.835938 94.128906 4.273438 Z M 106.503906 17.183594 C 107.71875 17.914062 109.273438 19.175781 109.902344 20.050781 C 112.425781 23.351562 112.621094 24.808594 112.621094 38.882812 L 112.621094 51.941406 L 88.300781 51.941406 L 88.449219 38.207031 C 88.589844 24.660156 88.589844 24.46875 89.804688 22.136719 C 91.167969 19.46875 93.640625 17.234375 96.40625 16.214844 C 99.222656 15.144531 103.835938 15.582031 106.503906 17.183594 Z M 76.214844 46.746094 C 76.214844 55.097656 76.84375 57.425781 79.855469 60.4375 C 83.25 63.835938 84.515625 64.078125 100.484375 64.078125 C 116.457031 64.078125 117.71875 63.835938 121.117188 60.4375 C 124.125 57.425781 124.757812 55.097656 124.757812 46.746094 L 124.757812 39.804688 L 140.535156 39.804688 C 158.007812 39.804688 158.398438 39.855469 160.195312 42.863281 C 161.164062 44.371094 161.164062 45.824219 161.164062 112.621094 C 161.164062 179.417969 161.164062 180.871094 160.195312 182.378906 C 158.25 185.628906 161.699219 185.4375 104.855469 185.4375 L 53.351562 185.4375 L 53.640625 184.320312 C 53.835938 183.738281 54.707031 181.652344 55.628906 179.660156 C 60.4375 169.371094 69.953125 160.921875 80.972656 157.28125 C 86.601562 155.4375 92.039062 154.902344 99.609375 155.53125 C 103.59375 155.871094 105.148438 155.824219 106.359375 155.339844 C 109.660156 153.933594 110.828125 148.980469 108.449219 146.164062 C 106.992188 144.417969 105.097656 143.785156 99.757812 143.253906 C 97.621094 143.007812 96.648438 142.816406 97.570312 142.765625 C 100.4375 142.671875 105.339844 141.308594 108.542969 139.804688 C 125.484375 131.699219 132.523438 111.503906 124.222656 94.660156 C 122.570312 91.308594 121.308594 89.710938 117.765625 86.117188 C 114.125 82.476562 112.574219 81.3125 109.175781 79.660156 C 99.707031 75.097656 89.125 75.097656 79.660156 79.660156 C 76.261719 81.3125 74.707031 82.476562 71.066406 86.117188 C 63.738281 93.496094 60.828125 100.875 61.3125 111.164062 C 61.457031 114.511719 61.894531 117.425781 62.621094 119.660156 C 66.359375 131.601562 77.523438 141.019531 89.855469 142.621094 L 92.960938 143.007812 L 88.980469 143.347656 C 79.949219 144.175781 68.6875 148.445312 61.652344 153.835938 C 57.574219 156.894531 51.261719 163.496094 48.785156 167.234375 C 46.40625 170.824219 43.59375 176.554688 42.425781 180.195312 C 41.890625 181.746094 41.359375 183.007812 41.214844 183.007812 C 39.902344 183.007812 39.804688 179.027344 39.804688 112.574219 C 39.804688 37.523438 39.5625 42.765625 42.863281 40.777344 C 44.320312 39.855469 45.386719 39.804688 60.339844 39.804688 L 76.214844 39.804688 Z M 98.59375 88.835938 C 105.871094 90.242188 112.667969 96.457031 114.804688 103.640625 C 116.308594 108.933594 115.339844 116.167969 112.523438 120.632812 C 109.804688 124.949219 105.289062 128.445312 100.679688 129.855469 C 97.621094 130.777344 91.214844 130.777344 88.15625 129.855469 C 79.367188 127.1875 73.300781 118.929688 73.300781 109.613281 C 73.300781 105.242188 74.320312 101.796875 76.699219 98.15625 C 81.457031 90.777344 89.902344 87.183594 98.59375 88.835938 Z M 98.59375 88.835938 "/>
<path style=" stroke:none;fill-rule:nonzero;fill:rgb(0%,0%,0%);fill-opacity:1;" d="M 115.679688 162.136719 C 112.71875 163.929688 111.84375 167.378906 113.589844 170.242188 C 115.386719 173.203125 116.019531 173.300781 130.824219 173.300781 C 145.632812 173.300781 146.261719 173.203125 148.058594 170.242188 C 149.269531 168.253906 149.269531 166.214844 148.058594 164.222656 C 146.261719 161.261719 145.632812 161.164062 130.730469 161.164062 C 118.203125 161.164062 117.136719 161.210938 115.679688 162.136719 Z M 115.679688 162.136719 "/>
</g>
</svg>
