<?xml version="1.0" encoding="UTF-8"?>
<svg xmlns="http://www.w3.org/2000/svg" xmlns:xlink="http://www.w3.org/1999/xlink" width="200pt" height="200pt" viewBox="0 0 200 200" version="1.1">
<g id="surface1">
<path style=" stroke:none;fill-rule:nonzero;fill:rgb(0%,0%,0%);fill-opacity:1;" d="M 52.992188 0.75 C 48.578125 1.496094 43.339844 5.089844 40.042969 9.582031 L 37.425781 13.097656 L 37.425781 24.328125 C 37.425781 30.464844 37.199219 38.847656 36.902344 42.8125 L 36.453125 50.148438 L 27.246094 50.148438 C 13.25 50.148438 11.078125 50.824219 5.390625 56.585938 L 0.75 61.453125 L 0.75 138.25 L 2.84375 140.941406 C 8.609375 148.203125 11.675781 149.402344 25.671875 150.074219 L 36.675781 150.597656 L 36.75 153.367188 C 37.648438 193.5625 37.800781 196.109375 39.519531 197.828125 C 41.167969 199.476562 41.46875 199.476562 62.574219 199.476562 C 83.082031 199.476562 83.980469 199.402344 85.03125 197.980469 C 86.828125 195.507812 86.078125 190.941406 83.609375 189.070312 C 81.660156 187.648438 80.3125 187.5 65.792969 187.277344 L 50.148438 186.976562 L 50.148438 113.25 L 65.71875 112.875 C 78.070312 112.574219 81.660156 112.277344 83.53125 111.300781 C 87.199219 109.429688 87.875 105.839844 85.328125 102.542969 L 83.90625 100.671875 L 63.699219 100.449219 C 40.644531 100.222656 39.597656 100.375 38.25 105.390625 C 37.800781 106.886719 37.425781 111.828125 37.425781 116.390625 C 37.425781 120.882812 37.199219 127.46875 36.902344 130.839844 L 36.453125 137.125 L 26.199219 136.828125 C 18.9375 136.675781 15.570312 136.300781 14.746094 135.554688 C 13.621094 134.65625 13.472656 131.210938 13.472656 99.925781 C 13.472656 68.636719 13.621094 65.195312 14.746094 64.296875 C 15.71875 63.398438 29.867188 63.25 100 63.25 C 179.640625 63.25 184.132812 63.324219 185.402344 64.597656 C 186.601562 65.71875 186.828125 67.738281 187.125 79.417969 L 187.5 92.964844 L 189.597656 94.761719 C 192.515625 97.230469 196.257812 97.15625 198.277344 94.609375 C 199.777344 92.738281 199.851562 91.691406 199.851562 77.542969 L 199.851562 62.425781 L 196.183594 58.082031 C 194.160156 55.6875 191.917969 53.367188 191.167969 52.84375 C 188.472656 50.972656 182.632812 50.148438 173.054688 50.148438 L 163.324219 50.148438 L 162.800781 31.585938 C 162.199219 10.929688 162.199219 10.929688 156.363281 5.613281 C 150.222656 0.148438 152.992188 0.375 102.171875 0.222656 C 77.097656 0.222656 54.941406 0.449219 52.992188 0.75 Z M 124.027344 13.398438 L 147.378906 13.472656 L 148.578125 15.71875 C 149.476562 17.441406 149.699219 21.03125 149.699219 34.058594 L 149.699219 50.148438 L 50.074219 50.148438 L 50.300781 33.832031 C 50.449219 20.507812 50.75 17.214844 51.722656 15.34375 L 52.992188 13.097656 L 76.796875 13.25 C 89.96875 13.324219 111.226562 13.398438 124.027344 13.398438 Z M 124.027344 13.398438 "/>
<path style=" stroke:none;fill-rule:nonzero;fill:rgb(0%,0%,0%);fill-opacity:1;" d="M 30.164062 75.300781 C 28.070312 75.824219 24.699219 79.714844 24.699219 81.660156 C 24.699219 83.683594 27.917969 86.527344 30.761719 87.125 C 36.976562 88.324219 40.867188 87.277344 42.964844 83.757812 C 44.085938 81.886719 44.085938 81.4375 43.113281 79.492188 C 42.515625 78.292969 41.542969 76.945312 40.867188 76.421875 C 39.671875 75.449219 32.859375 74.699219 30.164062 75.300781 Z M 30.164062 75.300781 "/>
<path style=" stroke:none;fill-rule:nonzero;fill:rgb(0%,0%,0%);fill-opacity:1;" d="M 123.128906 95.507812 C 110.402344 97.980469 98.578125 106.8125 93.1875 117.738281 C 90.417969 123.429688 88.324219 131.4375 88.324219 136.75 C 88.324219 138.546875 88.097656 139.96875 87.875 139.96875 C 87.648438 139.96875 85.554688 138.25 83.308594 136.226562 C 79.867188 133.082031 78.742188 132.484375 76.347656 132.484375 C 74.101562 132.484375 73.128906 132.933594 71.929688 134.429688 C 68.710938 138.472656 69.609375 140.121094 80.761719 151.421875 C 90.269531 161.078125 92.664062 162.800781 95.660156 162.050781 C 97.902344 161.527344 115.570312 144.460938 117.214844 141.316406 C 118.636719 138.546875 118.5625 136.75 116.691406 134.429688 C 115.492188 132.933594 114.519531 132.484375 112.277344 132.484375 C 109.878906 132.484375 108.757812 133.082031 105.238281 136.300781 L 101.046875 140.121094 L 101.046875 137.199219 C 101.046875 135.628906 101.570312 132.261719 102.246094 129.867188 C 105.988281 115.269531 118.113281 107.109375 135.851562 107.035156 C 149.25 107.035156 155.015625 110.253906 163.546875 122.304688 C 167.589844 128.070312 171.558594 129.042969 175.074219 125.222656 C 176.421875 123.726562 176.722656 122.679688 176.421875 120.808594 C 175.449219 114.746094 164.671875 102.320312 157.1875 98.578125 C 148.878906 94.460938 134.730469 93.1875 123.128906 95.507812 Z M 123.128906 95.507812 "/>
<path style=" stroke:none;fill-rule:nonzero;fill:rgb(0%,0%,0%);fill-opacity:1;" d="M 172.53125 131.136719 C 170.210938 132.410156 153.441406 149.101562 152.246094 151.347656 C 150.824219 154.117188 150.898438 155.914062 152.769531 158.234375 C 153.96875 159.730469 154.941406 160.179688 157.1875 160.179688 C 159.582031 160.179688 160.703125 159.582031 164.222656 156.363281 L 168.414062 152.542969 L 168.414062 155.464844 C 168.414062 157.035156 167.890625 160.402344 167.214844 162.800781 C 163.472656 177.394531 151.347656 185.554688 133.609375 185.628906 C 120.210938 185.628906 114.445312 182.410156 105.914062 170.359375 C 101.871094 164.597656 97.902344 163.621094 94.386719 167.441406 C 93.039062 168.9375 92.738281 169.984375 93.039062 171.855469 C 94.011719 177.917969 104.789062 190.34375 112.277344 194.085938 C 120.660156 198.203125 133.90625 199.476562 145.734375 197.230469 C 158.980469 194.761719 170.734375 186.152344 176.273438 174.925781 C 179.042969 169.238281 181.136719 161.226562 181.136719 155.839844 C 181.136719 154.117188 181.363281 152.695312 181.585938 152.695312 C 181.8125 152.695312 183.90625 154.339844 186.152344 156.4375 C 189.597656 159.582031 190.71875 160.179688 193.113281 160.179688 C 195.359375 160.179688 196.332031 159.730469 197.53125 158.234375 C 200.75 154.191406 199.851562 152.542969 188.699219 141.242188 C 178.070312 130.464844 176.046875 129.191406 172.53125 131.136719 Z M 172.53125 131.136719 "/>
</g>
</svg>
