<?xml version="1.0" encoding="UTF-8"?>
<svg xmlns="http://www.w3.org/2000/svg" xmlns:xlink="http://www.w3.org/1999/xlink" width="200px" height="200px" viewBox="0 0 200 196" version="1.1">
<g id="surface1">
<path style=" stroke:none;fill-rule:nonzero;fill:rgb(0%,0%,0%);fill-opacity:1;" d="M 56.988281 2.859375 C 48.21875 4.121094 39.960938 8.339844 33.582031 14.757812 C 30.019531 18.363281 28.660156 20.519531 19.605469 36.773438 C 15.855469 43.472656 12.101562 50.078125 11.304688 51.484375 C 4.503906 62.960938 6.191406 77.621094 15.382812 87.039062 L 18.527344 90.269531 L 16.324219 92.238281 C 13.273438 94.910156 10.179688 99.828125 8.628906 104.230469 C 7.503906 107.460938 7.316406 108.726562 7.316406 113.363281 C 7.316406 117.207031 7.550781 119.546875 8.160156 121.515625 C 10.929688 130.652344 17.449219 137.726562 26.359375 141.144531 L 30.253906 142.644531 L 62.757812 142.785156 L 95.214844 142.925781 L 95.214844 178.011719 L 68.199219 178.011719 C 38.601562 178.011719 39.070312 177.964844 37.382812 180.773438 C 36.351562 182.507812 36.351562 185.226562 37.382812 186.957031 C 39.117188 189.910156 35.367188 189.722656 100.84375 189.722656 C 166.324219 189.722656 162.570312 189.910156 164.304688 186.957031 C 165.335938 185.226562 165.335938 182.507812 164.304688 180.773438 C 162.617188 177.964844 163.085938 178.011719 133.488281 178.011719 L 106.472656 178.011719 L 106.472656 142.925781 L 138.976562 142.785156 L 171.433594 142.644531 L 174.953125 141.332031 C 183.816406 138.097656 190.761719 130.699219 193.527344 121.515625 C 194.886719 117.113281 194.746094 108.960938 193.246094 104.464844 C 191.886719 100.296875 188.460938 94.953125 185.367188 92.238281 L 183.160156 90.269531 L 186.304688 87.039062 C 192.074219 81.136719 194.980469 73.21875 194.511719 64.878906 C 194.183594 59.492188 192.917969 55.746094 189.492188 49.890625 C 187.992188 47.3125 183.910156 40.144531 180.441406 33.914062 C 176.96875 27.730469 173.3125 21.363281 172.28125 19.863281 C 167.074219 12.226562 158.628906 6.371094 148.921875 3.652344 C 145.167969 2.578125 145.167969 2.578125 102.484375 2.53125 C 79.035156 2.484375 58.535156 2.625 56.988281 2.859375 Z M 145.589844 14.992188 C 152.53125 16.769531 159.003906 21.175781 162.710938 26.65625 C 164.351562 29.089844 168.855469 36.867188 168.855469 37.289062 C 168.855469 37.382812 138.273438 37.476562 100.84375 37.476562 C 63.460938 37.476562 32.832031 37.382812 32.832031 37.289062 C 32.832031 36.867188 37.335938 29.089844 38.976562 26.65625 C 43.105469 20.519531 49.90625 16.207031 58.394531 14.382812 C 58.910156 14.242188 77.90625 14.148438 100.65625 14.101562 C 140.335938 14.054688 142.121094 14.101562 145.589844 14.992188 Z M 169.933594 49.890625 C 171.386719 50.265625 173.40625 51.0625 174.34375 51.671875 C 176.96875 53.355469 180.019531 56.871094 181.425781 59.867188 C 182.503906 62.117188 182.691406 63.195312 182.691406 66.753906 C 182.691406 70.363281 182.503906 71.390625 181.378906 73.828125 C 179.691406 77.433594 176.078125 81.042969 172.375 82.773438 L 169.558594 84.085938 L 32.128906 84.085938 L 29.316406 82.773438 C 25.609375 81.042969 22 77.433594 20.308594 73.828125 C 19.183594 71.390625 18.996094 70.363281 18.996094 66.753906 C 18.996094 63.195312 19.183594 62.117188 20.261719 59.867188 C 22.515625 54.996094 26.875 51.15625 31.566406 49.890625 C 35.320312 48.90625 166.042969 48.859375 169.933594 49.890625 Z M 169.933594 96.734375 C 176.921875 98.5625 182.175781 104.886719 182.785156 112.335938 C 183.394531 119.59375 179.316406 126.386719 172.375 129.621094 L 169.558594 130.933594 L 32.128906 130.933594 L 29.316406 129.621094 C 22.328125 126.339844 18.246094 119.410156 18.949219 112.054688 C 19.605469 104.933594 24.859375 98.5625 31.566406 96.734375 C 35.320312 95.75 166.042969 95.703125 169.933594 96.734375 Z M 169.933594 96.734375 "/>
<path style=" stroke:none;fill-rule:nonzero;fill:rgb(0%,0%,0%);fill-opacity:1;" d="M 47 59.070312 C 43.949219 60.617188 42.449219 63.148438 42.449219 66.753906 C 42.449219 69.097656 42.683594 69.988281 43.714844 71.53125 C 47.328125 77.011719 55.769531 76.546875 58.722656 70.6875 C 59.804688 68.628906 59.804688 64.878906 58.722656 62.820312 C 56.613281 58.601562 51.265625 56.917969 47 59.070312 Z M 47 59.070312 "/>
<path style=" stroke:none;fill-rule:nonzero;fill:rgb(0%,0%,0%);fill-opacity:1;" d="M 109.945312 61.648438 C 105.910156 63.617188 105.957031 69.988281 110.039062 71.90625 C 112.195312 72.890625 124.671875 72.890625 126.828125 71.90625 C 130.816406 69.988281 130.957031 63.945312 127.109375 61.648438 C 125.28125 60.617188 112.101562 60.570312 109.945312 61.648438 Z M 109.945312 61.648438 "/>
<path style=" stroke:none;fill-rule:nonzero;fill:rgb(0%,0%,0%);fill-opacity:1;" d="M 145.121094 61.648438 C 141.089844 63.617188 141.136719 69.988281 145.214844 71.90625 C 147.375 72.890625 159.851562 72.890625 162.007812 71.90625 C 166.136719 69.941406 166.136719 63.570312 162.007812 61.601562 C 159.898438 60.617188 147.1875 60.617188 145.121094 61.648438 Z M 145.121094 61.648438 "/>
<path style=" stroke:none;fill-rule:nonzero;fill:rgb(0%,0%,0%);fill-opacity:1;" d="M 47 105.917969 C 43.949219 107.460938 42.449219 109.992188 42.449219 113.597656 C 42.449219 115.941406 42.683594 116.832031 43.714844 118.378906 C 47.328125 123.859375 55.769531 123.390625 58.722656 117.535156 C 59.804688 115.472656 59.804688 111.726562 58.722656 109.664062 C 56.613281 105.449219 51.265625 103.761719 47 105.917969 Z M 47 105.917969 "/>
<path style=" stroke:none;fill-rule:nonzero;fill:rgb(0%,0%,0%);fill-opacity:1;" d="M 109.945312 108.492188 C 105.910156 110.460938 105.957031 116.832031 110.039062 118.753906 C 112.195312 119.734375 124.671875 119.734375 126.828125 118.753906 C 130.816406 116.832031 130.957031 110.789062 127.109375 108.492188 C 125.28125 107.460938 112.101562 107.414062 109.945312 108.492188 Z M 109.945312 108.492188 "/>
<path style=" stroke:none;fill-rule:nonzero;fill:rgb(0%,0%,0%);fill-opacity:1;" d="M 145.121094 108.492188 C 141.089844 110.460938 141.136719 116.832031 145.214844 118.753906 C 147.375 119.734375 159.851562 119.734375 162.007812 118.753906 C 166.136719 116.785156 166.136719 110.414062 162.007812 108.445312 C 159.898438 107.460938 147.1875 107.460938 145.121094 108.492188 Z M 145.121094 108.492188 "/>
<path style=" stroke:none;fill-rule:nonzero;fill:rgb(0%,0%,0%);fill-opacity:1;" d="M 13.976562 172.390625 C 9.757812 173.703125 7.363281 176.746094 7.363281 180.820312 C 7.363281 184.757812 9.144531 187.472656 12.757812 189.019531 C 16.886719 190.707031 21.667969 188.878906 23.78125 184.804688 C 24.953125 182.601562 24.71875 178.902344 23.3125 176.511719 C 21.480469 173.328125 17.074219 171.40625 13.976562 172.390625 Z M 13.976562 172.390625 "/>
<path style=" stroke:none;fill-rule:nonzero;fill:rgb(0%,0%,0%);fill-opacity:1;" d="M 185.039062 172.15625 C 184.804688 172.25 184.003906 172.4375 183.300781 172.578125 C 181.707031 172.953125 178.894531 175.339844 177.953125 177.121094 C 177.625 177.824219 177.296875 179.511719 177.296875 180.820312 C 177.296875 186.492188 181.753906 190.332031 187.382812 189.488281 C 189.210938 189.253906 190.054688 188.738281 191.839844 186.910156 C 193.667969 185.132812 194.183594 184.289062 194.417969 182.460938 C 195.214844 177.355469 192.121094 173.1875 186.914062 172.25 C 186.164062 172.109375 185.320312 172.0625 185.039062 172.15625 Z M 185.039062 172.15625 "/>
</g>
</svg>
