<?xml version="1.0" encoding="UTF-8"?>
<svg xmlns="http://www.w3.org/2000/svg" xmlns:xlink="http://www.w3.org/1999/xlink" width="200px" height="200px" viewBox="0 0 200 200" version="1.1">
<g id="surface1">
<path style=" stroke:none;fill-rule:nonzero;fill:rgb(0%,0%,0%);fill-opacity:1;" d="M 88.839844 12.097656 C 84.910156 12.5 76.832031 14.285156 73.082031 15.582031 C 57.320312 21.027344 43.125 32.679688 34.507812 47.1875 C 29.957031 54.910156 26.519531 64.554688 25.222656 73.304688 C 24.375 78.882812 24.375 89.417969 25.222656 95 C 30.042969 127.140625 56.382812 152.632812 88.390625 156.160156 L 91.296875 156.472656 L 91.429688 167.722656 L 91.515625 179.015625 L 51.785156 179.015625 C 7.902344 179.015625 10.265625 178.882812 8.484375 181.828125 C 6.828125 184.507812 7.855469 188.035156 10.667969 189.511719 C 11.875 190.089844 21.117188 190.175781 96.875 190.175781 C 190.625 190.175781 183.4375 190.402344 185.265625 187.367188 C 186.921875 184.6875 185.894531 181.160156 183.082031 179.6875 C 181.921875 179.109375 177.011719 179.015625 141.964844 179.015625 L 102.234375 179.015625 L 102.320312 167.765625 L 102.453125 156.519531 L 107.363281 155.757812 C 123.347656 153.347656 136.652344 146.742188 147.859375 135.582031 C 158.972656 124.597656 166.027344 110.714844 168.527344 95.089844 C 169.375 89.597656 169.375 78.703125 168.527344 73.214844 C 166.074219 57.769531 159.019531 43.882812 148.125 32.992188 C 132.410156 17.230469 111.027344 9.730469 88.839844 12.097656 Z M 79.730469 28.660156 C 74.910156 35.625 69.6875 46.519531 67.367188 54.332031 L 66.832031 56.25 L 54.597656 56.25 C 47.902344 56.25 42.410156 56.117188 42.410156 55.980469 C 42.410156 55.535156 45.535156 50.449219 47.453125 47.765625 C 49.957031 44.285156 56.339844 37.855469 60.046875 35.089844 C 65.847656 30.757812 71.339844 27.902344 77.902344 25.847656 C 80.136719 25.179688 82.054688 24.597656 82.277344 24.597656 C 82.457031 24.550781 81.292969 26.429688 79.730469 28.660156 Z M 116.074219 25.9375 C 119.464844 26.917969 126.742188 30.359375 130.089844 32.5 C 135.359375 35.894531 142.859375 42.945312 146.296875 47.765625 C 148.214844 50.449219 151.339844 55.535156 151.339844 55.980469 C 151.339844 56.117188 145.847656 56.25 139.152344 56.25 L 126.917969 56.25 L 126.382812 54.332031 C 124.109375 46.605469 119.421875 36.785156 114.417969 29.375 C 112.410156 26.339844 111.472656 24.597656 111.964844 24.730469 C 112.367188 24.867188 114.242188 25.402344 116.074219 25.9375 Z M 100 28.660156 C 105.359375 35.046875 111.429688 45.355469 113.75 52.097656 C 114.242188 53.527344 114.777344 55.042969 114.953125 55.445312 C 115.269531 56.207031 114.242188 56.25 96.917969 56.25 C 86.828125 56.25 78.574219 56.207031 78.574219 56.117188 C 78.574219 56.070312 79.285156 54.152344 80.136719 51.832031 C 82.007812 46.785156 85.089844 40.847656 88.484375 35.714844 C 91.25 31.5625 96.25 25.449219 96.875 25.449219 C 97.097656 25.449219 98.480469 26.875 100 28.660156 Z M 63.972656 71.070312 C 63.527344 75.847656 63.527344 92.457031 63.972656 97.1875 L 64.285156 100.890625 L 51.160156 100.890625 C 43.929688 100.890625 37.902344 100.757812 37.769531 100.535156 C 37.679688 100.355469 37.230469 98.617188 36.828125 96.652344 C 35.265625 89.105469 35.265625 78.617188 36.828125 71.605469 C 37.230469 69.6875 37.679688 67.945312 37.8125 67.722656 C 37.902344 67.542969 43.929688 67.410156 51.160156 67.410156 L 64.285156 67.410156 Z M 118.078125 68.394531 C 119.507812 74.597656 119.507812 95.535156 118.035156 100.089844 C 117.8125 100.847656 116.429688 100.890625 96.875 100.890625 C 77.320312 100.890625 75.9375 100.847656 75.714844 100.089844 C 75.132812 98.304688 74.550781 90.355469 74.550781 84.152344 C 74.550781 77.945312 75.132812 70 75.714844 68.171875 C 75.9375 67.457031 77.320312 67.410156 96.875 67.410156 L 117.859375 67.410156 Z M 156.785156 70.984375 C 158.4375 77.902344 158.484375 89.0625 156.921875 96.652344 C 156.519531 98.617188 156.070312 100.355469 155.980469 100.535156 C 155.847656 100.757812 149.820312 100.890625 142.589844 100.890625 L 129.464844 100.890625 L 129.777344 97.1875 C 130.222656 92.457031 130.222656 75.847656 129.777344 71.070312 L 129.464844 67.410156 L 142.722656 67.5 L 156.027344 67.636719 Z M 67.367188 113.929688 C 69.6875 121.785156 75.222656 133.214844 80.179688 140.269531 C 81.519531 142.1875 82.410156 143.75 82.1875 143.75 C 81.207031 143.75 75.355469 141.738281 72.097656 140.3125 C 63.078125 136.25 55 130 48.617188 121.964844 C 46.296875 119.105469 42.410156 113.035156 42.410156 112.320312 C 42.410156 112.1875 47.902344 112.050781 54.597656 112.050781 L 66.832031 112.050781 Z M 115.175781 112.144531 C 115.175781 113.035156 111.472656 121.785156 109.777344 125 C 106.160156 131.742188 98.167969 142.859375 96.875 142.859375 C 95.582031 142.859375 87.722656 132.007812 84.019531 125 C 82.277344 121.785156 78.574219 113.035156 78.574219 112.144531 C 78.574219 112.097656 86.828125 112.050781 96.875 112.050781 C 106.964844 112.050781 115.175781 112.097656 115.175781 112.144531 Z M 151.339844 112.320312 C 151.339844 113.035156 147.453125 119.105469 145.132812 121.964844 C 139.332031 129.238281 132.007812 135.132812 123.4375 139.417969 C 119.957031 141.160156 112.855469 143.75 111.5625 143.75 C 111.339844 143.75 112.230469 142.1875 113.570312 140.269531 C 118.527344 133.214844 124.0625 121.785156 126.382812 113.929688 L 126.917969 112.050781 L 139.152344 112.050781 C 145.847656 112.050781 151.339844 112.1875 151.339844 112.320312 Z M 151.339844 112.320312 "/>
</g>
</svg>
