<?xml version="1.0" encoding="UTF-8"?>
<svg xmlns="http://www.w3.org/2000/svg" xmlns:xlink="http://www.w3.org/1999/xlink" width="200px" height="200px" viewBox="0 0 200 200" version="1.1">
<g id="surface1">
<path style=" stroke:none;fill-rule:nonzero;fill:rgb(0%,0%,0%);fill-opacity:1;" d="M 31.785156 9.195312 C 23.929688 10.894531 16.5625 16.875 12.902344 24.464844 C 10.179688 30.089844 10.265625 27.234375 10.265625 97.589844 C 10.265625 142.277344 10.402344 162.679688 10.757812 164.554688 C 12.5 174.109375 20.089844 182.632812 29.507812 185.757812 L 32.8125 186.828125 L 166.296875 186.828125 L 169.640625 185.714844 C 176.472656 183.484375 182.410156 178.257812 185.757812 171.605469 C 188.972656 165.222656 188.792969 169.328125 188.792969 97.765625 C 188.839844 43.527344 188.707031 32.769531 188.171875 30.265625 C 186.472656 22.277344 180.671875 14.953125 172.988281 11.207031 C 167.277344 8.390625 170.222656 8.484375 99.195312 8.527344 C 45.9375 8.570312 34.105469 8.660156 31.785156 9.195312 Z M 165.089844 20.3125 C 169.863281 21.425781 173.972656 24.910156 176.207031 29.6875 L 177.453125 32.363281 L 177.453125 163.171875 L 176.25 165.714844 C 174.777344 168.882812 171.425781 172.546875 168.75 173.886719 C 167.636719 174.464844 165.535156 175.132812 164.0625 175.402344 C 160.402344 176.070312 38.707031 176.070312 35.046875 175.402344 C 29.730469 174.421875 25.269531 170.890625 22.902344 165.847656 L 21.652344 163.171875 L 21.652344 32.363281 L 22.902344 29.6875 C 25.089844 25 29.238281 21.425781 33.839844 20.355469 C 37.769531 19.375 161.027344 19.375 165.089844 20.3125 Z M 165.089844 20.3125 "/>
<path style=" stroke:none;fill-rule:nonzero;fill:rgb(0%,0%,0%);fill-opacity:1;" d="M 52.453125 47.8125 C 47.1875 48.570312 42.230469 52.1875 39.910156 57.007812 C 38.078125 60.667969 37.855469 64.554688 38.035156 89.152344 C 38.214844 109.019531 38.304688 112.097656 38.972656 114.105469 C 40.535156 118.792969 45.089844 123.347656 49.730469 124.820312 C 51.429688 125.402344 54.417969 125.625 61.742188 125.757812 L 71.425781 125.984375 L 71.425781 128.082031 C 71.472656 131.785156 72.324219 136.339844 73.4375 138.613281 C 75.714844 143.347656 80.847656 147.007812 86.207031 147.765625 C 89.910156 148.304688 109.195312 148.304688 112.902344 147.765625 C 118.300781 147.007812 123.394531 143.347656 125.714844 138.527344 C 126.875 136.207031 127.632812 132.007812 127.675781 128.082031 L 127.675781 125.984375 L 137.410156 125.757812 C 144.6875 125.625 147.679688 125.402344 149.375 124.820312 C 154.109375 123.304688 158.660156 118.707031 160.179688 113.882812 C 160.847656 111.652344 160.9375 108.839844 160.9375 86.160156 L 160.9375 60.9375 L 159.910156 58.347656 C 158.570312 55.042969 154.730469 50.847656 151.652344 49.375 C 150.355469 48.75 147.945312 48.035156 146.203125 47.765625 C 142.320312 47.230469 56.292969 47.277344 52.453125 47.8125 Z M 66.074219 70.535156 C 66.074219 83.4375 66.203125 84.105469 68.882812 85.714844 C 71.519531 87.320312 74.6875 86.515625 76.339844 83.796875 C 77.140625 82.457031 77.234375 81.472656 77.234375 70.625 L 77.234375 58.925781 L 93.707031 58.925781 L 93.839844 70.625 C 93.972656 80.671875 94.0625 82.542969 94.734375 83.75 C 95.535156 85.222656 97.902344 86.609375 99.550781 86.609375 C 101.207031 86.609375 103.347656 85.3125 104.238281 83.796875 C 105.042969 82.5 105.136719 81.339844 105.265625 70.625 L 105.402344 58.925781 L 121.875 58.925781 L 121.875 70.714844 C 121.875 82.1875 121.875 82.5 122.902344 83.972656 C 124.6875 86.652344 127.589844 87.367188 130.222656 85.714844 C 132.902344 84.105469 133.035156 83.4375 133.035156 70.535156 L 133.035156 58.925781 L 146.519531 58.925781 L 149.550781 61.964844 L 149.550781 111.292969 L 147.988281 112.769531 L 146.425781 114.242188 L 133.347656 114.375 C 121.742188 114.511719 120.132812 114.597656 119.0625 115.3125 C 116.5625 116.964844 116.296875 117.8125 116.074219 126.25 L 115.847656 134.019531 L 114.285156 135.3125 L 112.769531 136.609375 L 86.339844 136.609375 L 84.824219 135.3125 L 83.261719 134.019531 L 83.035156 126.25 C 82.8125 117.8125 82.542969 116.964844 80.042969 115.3125 C 78.972656 114.597656 77.367188 114.511719 65.757812 114.375 L 52.675781 114.242188 L 51.113281 112.769531 L 49.550781 111.292969 L 49.550781 61.964844 L 52.589844 58.925781 L 66.074219 58.925781 Z M 66.074219 70.535156 "/>
</g>
</svg>
