<?xml version="1.0" encoding="UTF-8"?>
<svg xmlns="http://www.w3.org/2000/svg" xmlns:xlink="http://www.w3.org/1999/xlink" width="200px" height="200px" viewBox="0 0 200 200" version="1.1">
<g id="surface1">
<path style=" stroke:none;fill-rule:nonzero;fill:rgb(0%,0%,0%);fill-opacity:1;" d="M 136.691406 4.515625 C 131.273438 6.558594 129.46875 9.648438 127.851562 19.25 L 126.664062 26.378906 L 120.007812 27.375 C 116.351562 27.945312 112.59375 28.707031 111.644531 29.136719 C 104.65625 32.082031 101.949219 41.160156 106.179688 47.386719 C 106.796875 48.242188 109.648438 50.855469 112.546875 53.230469 C 115.496094 55.609375 117.871094 57.746094 117.871094 57.984375 C 117.871094 58.269531 116.777344 61.167969 115.445312 64.496094 C 113.449219 69.4375 112.976562 71.148438 112.976562 73.429688 C 112.929688 80.324219 118.773438 85.929688 125.761719 85.695312 C 126.855469 85.644531 130.703125 84.503906 134.457031 83.03125 L 141.160156 80.464844 L 145.914062 86.265625 C 149.714844 90.96875 151.140625 92.347656 153.136719 93.347656 C 159.125 96.339844 166.585938 93.867188 169.722656 87.832031 C 170.246094 86.835938 171.054688 83.175781 171.625 79.515625 C 172.195312 75.902344 172.8125 72.765625 173.003906 72.574219 C 173.195312 72.386719 176.09375 71.769531 179.46875 71.292969 C 187.308594 70.058594 189.070312 69.390625 191.683594 66.585938 C 194.34375 63.785156 195.007812 61.550781 194.820312 56.9375 C 194.535156 52.1875 193.394531 50.570312 186.359375 45.34375 C 183.316406 43.0625 180.796875 41.160156 180.703125 41.113281 C 180.609375 41.015625 181.652344 38.117188 182.984375 34.648438 C 185.929688 26.949219 186.214844 25.285156 185.125 21.578125 C 184.503906 19.34375 183.839844 18.296875 181.890625 16.398438 C 177.375 12.023438 173.765625 11.738281 164.972656 15.210938 C 161.644531 16.492188 158.699219 17.585938 158.414062 17.585938 C 158.078125 17.585938 156.511719 15.921875 154.894531 13.878906 C 150.570312 8.507812 148.289062 6.226562 146.148438 5.132812 C 143.726562 3.851562 139.164062 3.566406 136.691406 4.515625 Z M 146.246094 22.195312 C 149.476562 26.140625 150.664062 27.234375 152.898438 28.375 C 157.082031 30.417969 159.457031 30.179688 167.207031 27.089844 C 170.675781 25.714844 173.621094 24.667969 173.765625 24.808594 C 173.859375 24.953125 172.910156 27.804688 171.578125 31.179688 C 166.871094 43.0625 167.726562 46.148438 177.804688 53.753906 C 181.84375 56.796875 183.414062 58.222656 182.9375 58.460938 C 182.558594 58.648438 179.800781 59.171875 176.757812 59.601562 C 170.058594 60.550781 168.582031 60.929688 166.300781 62.453125 C 162.5 64.972656 161.214844 67.917969 159.886719 77.089844 C 159.457031 80.179688 158.933594 82.699219 158.699219 82.699219 C 158.507812 82.699219 156.367188 80.324219 154.039062 77.425781 C 149.097656 71.339844 147.625 70.105469 144.105469 69.105469 C 140.875 68.15625 139.6875 68.394531 131.75 71.386719 C 128.230469 72.671875 125.285156 73.621094 125.144531 73.480469 C 124.953125 73.335938 125.902344 70.578125 127.1875 67.347656 C 129.277344 62.070312 129.515625 61.214844 129.515625 57.746094 C 129.515625 52.375 128.375 50.617188 121.386719 45.105469 C 116.207031 41.015625 115.210938 39.925781 116.585938 39.925781 C 118.867188 39.875 129.753906 37.878906 131.320312 37.167969 C 133.746094 36.074219 136.121094 33.792969 137.355469 31.320312 C 137.878906 30.324219 138.734375 26.710938 139.257812 23.195312 C 140.496094 15.210938 140.542969 15.160156 141.539062 16.398438 C 141.96875 16.921875 144.105469 19.535156 146.246094 22.195312 Z M 146.246094 22.195312 "/>
<path style=" stroke:none;fill-rule:nonzero;fill:rgb(0%,0%,0%);fill-opacity:1;" d="M 146.292969 39.925781 C 143.109375 40.875 140.636719 43.726562 139.78125 47.480469 C 138.308594 54.183594 144.867188 60.550781 151.570312 58.933594 C 158.746094 57.222656 161.644531 48.714844 156.9375 43.203125 C 154.183594 39.972656 150.191406 38.734375 146.292969 39.925781 Z M 146.292969 39.925781 "/>
<path style=" stroke:none;fill-rule:nonzero;fill:rgb(0%,0%,0%);fill-opacity:1;" d="M 43.867188 64.210938 C 40.351562 65.542969 36.929688 68.820312 35.074219 72.574219 C 33.601562 75.570312 33.554688 75.949219 33.363281 82.746094 C 33.175781 89.542969 33.128906 89.875 31.9375 91.015625 C 30.796875 92.207031 30.65625 92.207031 23.8125 92.109375 C 17.207031 91.96875 16.730469 92.015625 14.257812 93.203125 C 10.503906 95.007812 7.890625 97.480469 6.226562 100.855469 C 4.894531 103.46875 4.753906 104.230469 4.753906 108.078125 C 4.753906 114.257812 5.796875 116.300781 11.929688 122.195312 C 15.96875 126.09375 16.636719 126.949219 16.636719 128.28125 C 16.636719 130.511719 16.113281 131.226562 10.980469 136.3125 C 5.464844 141.730469 4.753906 143.296875 4.753906 149.667969 C 4.753906 152.996094 4.992188 154.230469 5.894531 156.226562 C 7.320312 159.269531 10.171875 162.121094 13.402344 163.832031 C 15.730469 165.019531 16.492188 165.113281 23.382812 165.398438 C 33.460938 165.78125 33.078125 165.398438 33.363281 174.808594 C 33.554688 179.5625 33.886719 182.460938 34.410156 183.886719 C 35.550781 186.976562 38.214844 190.304688 40.96875 192.109375 C 43.347656 193.632812 43.679688 193.679688 48.859375 193.820312 C 56.417969 194.058594 57.414062 193.632812 63.5 187.40625 C 67.917969 182.890625 68.441406 182.507812 70.105469 182.507812 C 71.769531 182.507812 72.289062 182.890625 76.710938 187.40625 C 82.792969 193.632812 83.792969 194.058594 91.351562 193.820312 C 96.53125 193.679688 96.863281 193.632812 99.238281 192.109375 C 101.996094 190.304688 104.65625 186.976562 105.796875 183.886719 C 106.320312 182.460938 106.652344 179.5625 106.84375 174.808594 C 107.128906 165.398438 106.796875 165.730469 116.585938 165.398438 C 123.097656 165.160156 124.050781 165.019531 126.519531 163.878906 C 133.886719 160.457031 137.40625 152.375 134.980469 144.4375 C 133.984375 141.113281 133.746094 140.683594 129.277344 136.3125 C 124.097656 131.226562 123.574219 130.511719 123.574219 128.28125 C 123.574219 126.949219 124.238281 126.09375 128.328125 122.195312 C 133.554688 117.15625 135.3125 114.164062 135.789062 109.695312 C 136.3125 104.609375 133.792969 98.765625 129.753906 95.578125 C 125.949219 92.585938 123.480469 91.96875 115.921875 92.109375 C 109.742188 92.207031 109.410156 92.15625 108.269531 91.113281 C 107.128906 90.019531 107.082031 89.734375 106.84375 82.792969 C 106.605469 75.902344 106.558594 75.476562 105.085938 72.527344 C 101.285156 64.78125 92.726562 61.3125 84.742188 64.210938 C 82.460938 65.066406 81.179688 66.066406 77.234375 69.960938 C 72.289062 74.953125 71.007812 75.761719 69.152344 75.285156 C 68.535156 75.144531 65.828125 72.8125 63.117188 70.105469 C 59.078125 66.066406 57.746094 65.066406 55.464844 64.210938 C 51.902344 62.929688 47.242188 62.929688 43.867188 64.210938 Z M 55.894531 79.707031 C 61.359375 85.597656 64.304688 87.214844 70.105469 87.214844 C 75.761719 87.214844 78.898438 85.550781 84.363281 79.609375 C 88.261719 75.378906 88.59375 75.09375 90.351562 75.09375 C 91.730469 75.09375 92.585938 75.429688 93.394531 76.285156 C 94.535156 77.375 94.582031 77.757812 94.582031 82.605469 C 94.582031 91.824219 96.007812 96.101562 100.429688 100.046875 C 104.085938 103.375 106.84375 104.183594 114.542969 104.039062 C 118.632812 103.945312 121.339844 104.136719 121.957031 104.46875 C 123.289062 105.179688 124.238281 107.558594 123.859375 109.078125 C 123.667969 109.742188 121.339844 112.453125 118.632812 115.160156 C 112.878906 120.816406 111.691406 123.144531 111.691406 128.800781 C 111.691406 134.363281 112.929688 136.785156 118.347656 142.109375 C 120.863281 144.582031 123.195312 147.148438 123.527344 147.71875 C 124.285156 149.097656 123.859375 151 122.527344 152.425781 C 121.578125 153.421875 121.101562 153.515625 115.921875 153.515625 C 107.035156 153.515625 103.566406 154.5625 99.667969 158.460938 C 95.769531 162.40625 94.582031 166.300781 94.582031 175.429688 C 94.582031 180.179688 94.535156 180.511719 93.394531 181.558594 C 92.585938 182.320312 91.636719 182.699219 90.496094 182.699219 C 89.019531 182.699219 88.261719 182.128906 83.984375 177.898438 C 77.660156 171.671875 75.664062 170.628906 70.058594 170.628906 C 64.78125 170.628906 62.308594 171.910156 56.417969 177.660156 C 51.949219 182.128906 51.140625 182.699219 49.667969 182.699219 C 48.574219 182.699219 47.625 182.320312 46.816406 181.558594 C 45.675781 180.511719 45.628906 180.179688 45.628906 175.429688 C 45.628906 166.300781 44.4375 162.40625 40.542969 158.460938 C 36.644531 154.5625 33.175781 153.515625 24.238281 153.515625 L 18.632812 153.515625 L 17.394531 152.042969 C 15.113281 149.335938 15.589844 148.242188 21.863281 142.109375 C 27.28125 136.785156 28.515625 134.363281 28.515625 128.800781 C 28.515625 123.144531 27.328125 120.816406 21.578125 115.160156 C 18.867188 112.453125 16.539062 109.742188 16.351562 109.078125 C 15.96875 107.558594 16.921875 105.179688 18.25 104.46875 C 18.867188 104.136719 21.578125 103.945312 25.664062 104.039062 C 33.363281 104.183594 36.121094 103.375 39.78125 100.046875 C 44.203125 96.101562 45.628906 91.824219 45.628906 82.414062 C 45.628906 77.1875 45.675781 77.042969 46.863281 76.09375 C 47.625 75.476562 48.8125 75.09375 49.90625 75.09375 C 51.570312 75.09375 51.996094 75.429688 55.894531 79.707031 Z M 55.894531 79.707031 "/>
<path style=" stroke:none;fill-rule:nonzero;fill:rgb(0%,0%,0%);fill-opacity:1;" d="M 67.492188 107.984375 C 66.066406 108.128906 64.164062 108.507812 63.308594 108.792969 C 58.699219 110.21875 53.613281 114.828125 51.1875 119.722656 C 49.761719 122.71875 49.667969 123.144531 49.667969 128.328125 C 49.667969 133.507812 49.761719 133.984375 51.1875 137.023438 C 56.367188 147.957031 69.058594 152.375 79.707031 146.910156 C 83.222656 145.152344 86.835938 141.351562 88.734375 137.453125 C 90.496094 133.886719 90.542969 133.746094 90.542969 128.328125 C 90.542969 123.144531 90.445312 122.71875 89.019531 119.722656 C 86.597656 114.828125 81.511719 110.21875 76.902344 108.792969 C 74.285156 107.984375 70.246094 107.605469 67.492188 107.984375 Z M 73.8125 120.4375 C 76.996094 121.769531 78.898438 124.855469 78.898438 128.613281 C 78.898438 132.273438 76.902344 135.21875 73.527344 136.644531 C 70.484375 137.929688 66.398438 137.261719 64.019531 135.074219 C 61.644531 132.9375 60.644531 128.28125 61.835938 125.144531 C 62.5 123.382812 64.542969 121.246094 66.300781 120.4375 C 68.15625 119.628906 71.863281 119.582031 73.8125 120.4375 Z M 73.8125 120.4375 "/>
</g>
</svg>
