<?xml version="1.0" encoding="UTF-8"?>
<svg xmlns="http://www.w3.org/2000/svg" xmlns:xlink="http://www.w3.org/1999/xlink" width="275px" height="200px" viewBox="0 0 275 200" version="1.1">
<g id="surface1">
<path style=" stroke:none;fill-rule:nonzero;fill:rgb(0%,0%,0%);fill-opacity:1;" d="M 123.40625 2.230469 C 114.8125 3.609375 109.171875 5.050781 101.890625 7.613281 C 81.195312 14.894531 64.828125 27.164062 52.25 44.621094 C 41.25 59.972656 35.476562 76.773438 34.578125 95.667969 L 34.171875 104.460938 L 23.789062 94.621094 C 18.078125 89.238281 12.71875 84.449219 11.890625 84.054688 C 5.5 80.972656 -2.476562 88.582031 0.757812 94.683594 C 1.648438 96.324219 35.820312 129.59375 38.5 131.363281 C 39.460938 132.019531 41.453125 132.546875 42.96875 132.546875 C 44.484375 132.546875 46.476562 132.019531 47.4375 131.363281 C 50.117188 129.59375 84.289062 96.324219 85.179688 94.683594 C 88.414062 88.582031 80.4375 80.972656 74.046875 84.054688 C 73.21875 84.449219 67.789062 89.238281 62.078125 94.683594 L 51.5625 104.660156 L 51.5625 99.476562 C 51.5625 65.027344 75.554688 33.269531 109.929688 22.308594 C 127.671875 16.601562 144.375 16.339844 161.835938 21.390625 C 177.101562 25.851562 186.929688 31.429688 198 41.996094 C 205.765625 49.410156 207.351562 50.523438 209.890625 50.523438 C 215.734375 50.523438 220.070312 45.539062 218.554688 40.355469 C 217.59375 37.074219 206.664062 26.3125 198.34375 20.472656 C 186.65625 12.269531 170.226562 5.511719 155.71875 2.953125 C 147.398438 1.507812 130.484375 1.117188 123.40625 2.230469 Z M 123.40625 2.230469 "/>
<path style=" stroke:none;fill-rule:nonzero;fill:rgb(0%,0%,0%);fill-opacity:1;" d="M 228.59375 75.722656 C 227.492188 76.246094 218.28125 84.578125 208.171875 94.226562 C 192.640625 109.253906 189.820312 112.269531 189.40625 114.304688 C 188.515625 118.832031 191.125 122.898438 195.796875 124.277344 C 199.445312 125.394531 201.507812 124.082031 212.578125 113.648438 L 223.367188 103.476562 L 223.023438 107.019531 C 221.578125 121.128906 216.835938 133.792969 208.453125 145.867188 C 204.53125 151.574219 195.109375 161.089844 189.203125 165.289062 C 170.570312 178.675781 145.476562 184.382812 122.992188 180.511719 C 105.671875 177.558594 91.851562 171.128906 79.890625 160.5 C 73.078125 154.394531 71.703125 153.542969 68.890625 153.542969 C 62.421875 153.542969 58.4375 160.234375 61.460938 165.878906 C 62.90625 168.570312 73.21875 177.101562 81.195312 182.152344 C 91.851562 188.976562 103.054688 193.308594 117.5625 196.261719 C 123.679688 197.570312 126.84375 197.769531 138.1875 197.769531 C 150.632812 197.769531 152.140625 197.636719 159.5 195.933594 C 170.085938 193.4375 175.585938 191.46875 184.453125 187.203125 C 208.242188 175.65625 226.117188 156.035156 234.984375 131.890625 C 237.804688 124.148438 240.625 110.367188 240.625 104.394531 C 240.625 103.871094 245.507812 108.070312 251.484375 113.648438 C 263.585938 125.066406 265.03125 125.851562 269.84375 123.621094 C 274.242188 121.652344 275.960938 117.453125 274.242188 113.058594 C 273.28125 110.5625 238.148438 76.902344 235.328125 75.722656 C 232.578125 74.605469 231.273438 74.605469 228.59375 75.722656 Z M 228.59375 75.722656 "/>
</g>
</svg>
